<?xml version="1.0" encoding="UTF-8"?>
<svg width="200px" height="200px" viewBox="0 0 200 200" version="1.1" xmlns="http://www.w3.org/2000/svg">
    <defs>
        <linearGradient id="earthGradient" x1="0%" y1="0%" x2="100%" y2="100%">
            <stop offset="0%" stop-color="#43c6db" />
            <stop offset="100%" stop-color="#2a8a8a" />
        </linearGradient>
        <linearGradient id="landGradient" x1="0%" y1="0%" x2="100%" y2="100%">
            <stop offset="0%" stop-color="#7ee7d5" />
            <stop offset="100%" stop-color="#7ed4bd" />
        </linearGradient>
        <radialGradient id="bgGlow" cx="50%" cy="50%" r="50%" fx="50%" fy="50%">
            <stop offset="0%" stop-color="#15303a" stop-opacity="0.3" />
            <stop offset="100%" stop-color="#0c1c23" stop-opacity="0" />
        </radialGradient>
    </defs>
    
    <!-- 背景光暈 -->
    <circle cx="100" cy="100" r="100" fill="url(#bgGlow)" />
    
    <!-- 地球背景 -->
    <circle cx="100" cy="100" r="70" fill="url(#earthGradient)" fill-opacity="0.9" />
    
    <!-- 大陸 -->
    <g fill="url(#landGradient)" fill-opacity="0.7">
        <!-- 亞洲和歐洲 -->
        <path d="M100,50 Q120,45 130,60 Q140,70 135,85 Q125,95 130,110 Q120,120 105,115 Q95,105 85,110 Q75,100 65,95 Q70,80 80,70 Q90,60 100,50" />
        
        <!-- 非洲 -->
        <path d="M105,85 Q115,90 120,100 Q118,115 110,120 Q100,125 90,115 Q95,100 105,85" />
        
        <!-- 北美洲 -->
        <path d="M45,60 Q55,50 70,55 Q75,65 65,75 Q55,80 45,75 Q40,65 45,60" />
        
        <!-- 南美洲 -->
        <path d="M60,95 Q70,90 75,100 Q70,115 60,110 Q55,100 60,95" />
        
        <!-- 澳洲 -->
        <path d="M145,120 Q155,115 160,125 Q155,135 145,130 Q142,125 145,120" />
    </g>
    
    <!-- 環繞軌道 - 三個不同角度的橢圓 -->
    <ellipse cx="100" cy="100" rx="85" ry="40" fill="none" stroke="#a1e2e8" stroke-width="0.8" stroke-opacity="0.5" transform="rotate(0, 100, 100)" />
    <ellipse cx="100" cy="100" rx="85" ry="40" fill="none" stroke="#a1e2e8" stroke-width="0.8" stroke-opacity="0.5" transform="rotate(60, 100, 100)" />
    <ellipse cx="100" cy="100" rx="85" ry="40" fill="none" stroke="#a1e2e8" stroke-width="0.8" stroke-opacity="0.5" transform="rotate(120, 100, 100)" />
    
    <!-- 額外的細軌道線 -->
    <ellipse cx="100" cy="100" rx="78" ry="65" fill="none" stroke="#76c4d5" stroke-width="0.4" stroke-opacity="0.7" transform="rotate(30, 100, 100)" />
    <ellipse cx="100" cy="100" rx="78" ry="65" fill="none" stroke="#76c4d5" stroke-width="0.4" stroke-opacity="0.7" transform="rotate(100, 100, 100)" />
    
    <!-- 小星星/光點 -->
    <circle cx="30" cy="40" r="0.8" fill="white" fill-opacity="0.8" />
    <circle cx="50" cy="30" r="0.6" fill="white" fill-opacity="0.6" />
    <circle cx="150" cy="30" r="0.8" fill="white" fill-opacity="0.8" />
    <circle cx="170" cy="50" r="0.6" fill="white" fill-opacity="0.6" />
    <circle cx="160" cy="150" r="0.8" fill="white" fill-opacity="0.8" />
    <circle cx="30" cy="160" r="0.6" fill="white" fill-opacity="0.6" />
    <circle cx="70" cy="20" r="0.8" fill="white" fill-opacity="0.7" />
    <circle cx="180" cy="80" r="0.7" fill="white" fill-opacity="0.8" />
    <circle cx="20" cy="100" r="0.6" fill="white" fill-opacity="0.7" />
</svg> 