<svg width="49" height="47" viewBox="0 0 49 47" fill="none" xmlns="http://www.w3.org/2000/svg">
<path d="M7.24506 6.08505H40.9703V20.3152L24.1077 33.2054L7.24506 20.4429V6.08505Z" fill="white"/>
<path d="M47.8337 28.9926V15.2739M47.8337 15.2739L24.1668 33.1162M47.8337 15.2739L41.1281 11.3089V20.4283M47.8337 15.2739L41.1281 20.4283M24.1668 33.1162L0.5 15.2739M24.1668 33.1162L7.2056 20.4283M24.1668 33.1162L41.1281 20.4283M0.5 15.2739V46.2006H31.8388M0.5 15.2739L7.2056 11.3089V20.4283M0.5 15.2739L7.2056 20.4283M7.2056 20.4283V6.15445H41.1281V20.4283M13.1223 11.7054H35.2113M13.1223 16.4634H35.2113M13.1223 21.2213H35.2113M24.1668 1L32.8447 6.15445H15.489L24.1668 1Z" stroke="white" stroke-linejoin="round"/>
<path d="M45.5254 46.6774H40.8309C39.6707 46.6774 38.6118 46.4808 37.654 46.0876C36.7097 45.6943 35.9003 45.1316 35.2258 44.3993C34.5513 43.6806 34.0251 42.8128 33.6474 41.7958C33.2832 40.7652 33.1011 39.6194 33.1011 38.3583C33.1011 37.0972 33.2899 35.9446 33.6677 34.9004C34.0454 33.8563 34.5782 32.9613 35.2662 32.2155C35.9542 31.4561 36.7839 30.8663 37.7552 30.4459C38.7264 30.0256 39.8124 29.8154 41.013 29.8154C41.9573 29.8154 42.8814 29.9645 43.7852 30.2629C44.6891 30.5476 45.485 31.0019 46.173 31.6257C46.8745 32.2494 47.4343 33.063 47.8525 34.0665C48.2842 35.0564 48.5 36.2497 48.5 37.6464C48.5 38.3515 48.4326 39.0159 48.2977 39.6397C48.1763 40.2635 47.9739 40.8127 47.6906 41.2873C47.4073 41.7483 47.0431 42.1212 46.5979 42.406C46.1527 42.6772 45.6131 42.8128 44.9791 42.8128C44.3316 42.8128 43.8459 42.6501 43.5222 42.3246C43.1984 41.9992 43.0028 41.5788 42.9354 41.0635H42.8544C42.5846 41.6059 42.2541 42.0331 41.8629 42.345C41.4717 42.6568 40.9658 42.8128 40.3453 42.8128C39.8731 42.8128 39.4212 42.7246 38.9895 42.5484C38.5713 42.3585 38.2003 42.0805 37.8766 41.7144C37.5528 41.3483 37.2965 40.8872 37.1076 40.3313C36.9188 39.7618 36.8243 39.0973 36.8243 38.3379C36.8243 37.5786 36.9188 36.9209 37.1076 36.3649C37.2965 35.7954 37.5528 35.3276 37.8766 34.9615C38.2003 34.5953 38.5713 34.3241 38.9895 34.1478C39.4212 33.958 39.8731 33.8631 40.3453 33.8631C40.9658 33.8631 41.4582 34.019 41.8224 34.3309C42.1867 34.6292 42.4632 34.9954 42.6521 35.4293H42.733V34.0461H44.1292V40.2296C44.1292 40.7584 44.2169 41.1178 44.3923 41.3076C44.5811 41.4839 44.8644 41.572 45.2422 41.572C45.8762 41.572 46.3551 41.2466 46.6789 40.5957C47.0026 39.9448 47.1645 39.0498 47.1645 37.9108V36.9751C47.1645 36.0802 47.0026 35.2666 46.6789 34.5343C46.3686 33.8021 45.9369 33.1783 45.3838 32.663C44.8307 32.1477 44.1764 31.7477 43.421 31.4629C42.6656 31.1782 41.8561 31.0358 40.9928 31.0358C40.0215 31.0358 39.1379 31.2053 38.342 31.5443C37.5461 31.8833 36.8581 32.3579 36.278 32.9681C35.6979 33.5648 35.246 34.2699 34.9222 35.0835C34.612 35.8835 34.4568 36.7514 34.4568 37.687V38.8871C34.4568 39.8499 34.612 40.7313 34.9222 41.5314C35.2325 42.3314 35.6642 43.023 36.2173 43.6061C36.7839 44.1891 37.4584 44.6366 38.2408 44.9485C39.0232 45.274 39.8933 45.4367 40.8511 45.4367H45.5254V46.6774ZM40.6285 41.4703C41.3435 41.4703 41.8696 41.3008 42.2069 40.9618C42.5576 40.6228 42.733 40.1414 42.733 39.5177V37.0362C42.733 36.5209 42.5644 36.0869 42.2271 35.7344C41.8899 35.3818 41.357 35.2055 40.6285 35.2055C39.9001 35.2055 39.3672 35.4157 39.03 35.8361C38.6927 36.2564 38.5241 36.8192 38.5241 37.5243V39.1515C38.5241 39.8567 38.6927 40.4194 39.03 40.8398C39.3672 41.2602 39.9001 41.4703 40.6285 41.4703Z" fill="white"/>
<line x1="13.0907" y1="21.2923" x2="35.2931" y2="21.2923" stroke="#373997"/>
<line x1="13.0907" y1="16.5462" x2="35.2931" y2="16.5462" stroke="#373997"/>
<line x1="13.0907" y1="11.8001" x2="35.2931" y2="11.8001" stroke="#373997"/>
</svg>
