<svg width="14" height="12" viewBox="0 0 14 12" fill="none" xmlns="http://www.w3.org/2000/svg">
<path fill-rule="evenodd" clip-rule="evenodd" d="M1.04321 3.73438H3.6315V11.2502H1.04321V3.73438Z" fill="white"/>
<path fill-rule="evenodd" clip-rule="evenodd" d="M2.33813 0C3.16656 0 3.83813 0.606409 3.83813 1.35445C3.83813 2.10249 3.16656 2.7089 2.33813 2.7089C1.50971 2.7089 0.838135 2.10249 0.838135 1.35445C0.838135 0.606409 1.50971 0 2.33813 0" fill="white"/>
<path fill-rule="evenodd" clip-rule="evenodd" d="M5.33813 3.19969H7.87021V4.30046H7.91844C8.43523 3.46455 9.3959 2.96553 10.4184 3.00186C13.0978 3.00186 13.5881 4.66823 13.5881 6.83425V11.25H10.9462V7.33644C10.9462 6.40307 10.9301 5.20085 9.57433 5.20085C8.21853 5.20085 7.9881 6.21539 7.9881 7.26796V11.25H5.34885L5.33813 3.19969Z" fill="white"/>
</svg>
