<svg width="15" height="12" viewBox="0 0 15 12" fill="none" xmlns="http://www.w3.org/2000/svg">
<path fill-rule="evenodd" clip-rule="evenodd" d="M14.0881 1.33213C13.5825 1.56083 13.0467 1.71175 12.4981 1.78003C13.0769 1.4246 13.51 0.86538 13.7168 0.206553C13.1726 0.537425 12.5774 0.770541 11.9567 0.895858C11.1794 0.0469406 9.97584 -0.229157 8.92021 0.199261C7.86457 0.62768 7.17067 1.67383 7.16949 2.83871C7.16986 3.05691 7.19362 3.27442 7.24035 3.48729C5.01638 3.37577 2.9424 2.30321 1.53197 0.535209C0.802142 1.82886 1.17381 3.48155 2.38228 4.3162C1.94222 4.30193 1.5118 4.18029 1.12666 3.96137V3.99918C1.12767 5.35133 2.05706 6.51547 3.34879 6.78258C2.941 6.89486 2.51385 6.91176 2.09884 6.83202C2.46027 7.98938 3.4996 8.78223 4.68377 8.80395C3.70314 9.59082 2.49338 10.0169 1.24854 10.0139C1.02782 10.0136 0.8073 10 0.588135 9.97315C1.85548 10.811 3.33208 11.2544 4.83966 11.25C9.94148 11.25 12.7163 6.92218 12.7163 3.17027C12.7163 3.04521 12.7163 2.92305 12.7163 2.8009C13.2548 2.39863 13.7193 1.9013 14.0881 1.33213V1.33213Z" fill="white"/>
</svg>
