<svg width="41" height="40" viewBox="0 0 41 40" fill="none" xmlns="http://www.w3.org/2000/svg">
<path d="M6.62085 5.23755H34.7252V17.096L20.673 27.8378L6.62085 17.2024V5.23755Z" fill="white"/>
<path d="M40.4447 24.3272V12.8949M40.4447 12.8949L20.7224 27.7635M40.4447 12.8949L34.8567 9.59075V17.1903M40.4447 12.8949L34.8567 17.1903M20.7224 27.7635L1 12.8949M20.7224 27.7635L6.588 17.1903M20.7224 27.7635L34.8567 17.1903M1 12.8949V38.6671H27.1157M1 12.8949L6.588 9.59075V17.1903M1 12.8949L6.588 17.1903M6.588 17.1903V5.29538H34.8567V17.1903M11.5186 9.92116H29.9261M11.5186 13.8861H29.9261M11.5186 17.8511H29.9261M20.7224 1L27.9539 5.29538H13.4908L20.7224 1Z" stroke="white" stroke-linejoin="round"/>
<path d="M38.5211 39.0645H34.609C33.6422 39.0645 32.7597 38.9007 31.9616 38.573C31.1746 38.2453 30.5001 37.7763 29.9381 37.1661C29.376 36.5672 28.9375 35.844 28.6228 34.9965C28.3192 34.1377 28.1675 33.1828 28.1675 32.1319C28.1675 31.081 28.3249 30.1205 28.6396 29.2504C28.9544 28.3803 29.3985 27.6344 29.9718 27.0129C30.5451 26.3801 31.2365 25.8886 32.0459 25.5383C32.8553 25.188 33.7602 25.0128 34.7608 25.0128C35.5477 25.0128 36.3177 25.1371 37.0709 25.3857C37.8241 25.623 38.4874 26.0016 39.0607 26.5214C39.6453 27.0412 40.1118 27.7192 40.4603 28.5554C40.8201 29.3803 40.9999 30.3747 40.9999 31.5386C40.9999 32.1263 40.9437 32.68 40.8313 33.1998C40.7301 33.7196 40.5615 34.1772 40.3254 34.5727C40.0894 34.9569 39.7858 35.2677 39.4148 35.505C39.0439 35.731 38.5942 35.844 38.0658 35.844C37.5262 35.844 37.1215 35.7084 36.8517 35.4372C36.5819 35.166 36.4189 34.8157 36.3627 34.3863H36.2953C36.0704 34.8383 35.795 35.1942 35.469 35.4541C35.143 35.7141 34.7214 35.844 34.2043 35.844C33.8108 35.844 33.4342 35.7706 33.0745 35.6237C32.726 35.4654 32.4169 35.2338 32.1471 34.9287C31.8773 34.6236 31.6637 34.2394 31.5063 33.7761C31.3489 33.3015 31.2702 32.7478 31.2702 32.115C31.2702 31.4821 31.3489 30.9341 31.5063 30.4708C31.6637 29.9962 31.8773 29.6063 32.1471 29.3012C32.4169 28.9961 32.726 28.7701 33.0745 28.6232C33.4342 28.465 33.8108 28.3859 34.2043 28.3859C34.7214 28.3859 35.1317 28.5159 35.4353 28.7758C35.7388 29.0244 35.9693 29.3295 36.1266 29.6911H36.1941V28.5385H37.3576V33.6913C37.3576 34.132 37.4307 34.4315 37.5768 34.5897C37.7342 34.7366 37.9703 34.81 38.2851 34.81C38.8134 34.81 39.2125 34.5388 39.4823 33.9964C39.7521 33.454 39.887 32.7082 39.887 31.759V30.9793C39.887 30.2335 39.7521 29.5555 39.4823 28.9453C39.2237 28.3351 38.864 27.8153 38.4031 27.3858C37.9422 26.9564 37.397 26.6231 36.7674 26.3858C36.1379 26.1485 35.4634 26.0298 34.7439 26.0298C33.9345 26.0298 33.1982 26.1711 32.5349 26.4536C31.8716 26.7361 31.2983 27.1316 30.8149 27.6401C30.3315 28.1373 29.9549 28.7249 29.6851 29.4029C29.4266 30.0696 29.2973 30.7928 29.2973 31.5725V32.5726C29.2973 33.3749 29.4266 34.1094 29.6851 34.7761C29.9437 35.4428 30.3034 36.0192 30.7643 36.5051C31.2365 36.991 31.7986 37.3639 32.4506 37.6238C33.1026 37.895 33.8277 38.0306 34.6259 38.0306H38.5211V39.0645ZM34.4404 34.7253C35.0362 34.7253 35.4746 34.584 35.7557 34.3015C36.0479 34.019 36.1941 33.6179 36.1941 33.0981V31.0301C36.1941 30.6007 36.0536 30.2391 35.7725 29.9453C35.4915 29.6515 35.0474 29.5046 34.4404 29.5046C33.8333 29.5046 33.3893 29.6798 33.1082 30.0301C32.8272 30.3804 32.6867 30.8493 32.6867 31.4369V32.793C32.6867 33.3806 32.8272 33.8495 33.1082 34.1998C33.3893 34.5501 33.8333 34.7253 34.4404 34.7253Z" fill="white"/>
<line x1="11.4922" y1="17.8269" x2="29.9942" y2="17.8269" stroke="#373997"/>
<line x1="11.4922" y1="13.8718" x2="29.9942" y2="13.8718" stroke="#373997"/>
<line x1="11.4922" y1="9.91675" x2="29.9942" y2="9.91675" stroke="#373997"/>
</svg>
