<?xml version="1.0" encoding="utf-8"?>
<!-- Generator: Adobe Illustrator 27.1.1, SVG Export Plug-In . SVG Version: 6.00 Build 0)  -->
<svg version="1.1" id="Layer_1" xmlns="http://www.w3.org/2000/svg" xmlns:xlink="http://www.w3.org/1999/xlink" x="0px" y="0px"
	 viewBox="0 0 802 346" style="enable-background:new 0 0 802 346;" xml:space="preserve">
<style type="text/css">
	.st0{fill:#F5A853;}
	.st1{fill:#4F82C3;}
	.st2{fill:url(#SVGID_1_);}
	.st3{fill:url(#SVGID_00000026157796918185558030000017144523367180533379_);}
	.st4{fill-rule:evenodd;clip-rule:evenodd;fill:url(#SVGID_00000047781745981529830210000005694899398241433482_);}
	.st5{fill-rule:evenodd;clip-rule:evenodd;fill:url(#SVGID_00000136409255711752280900000006243288483261174409_);}
	.st6{fill-rule:evenodd;clip-rule:evenodd;fill:url(#SVGID_00000049902432386848375540000004241840418850536585_);}
	.st7{fill-rule:evenodd;clip-rule:evenodd;fill:url(#SVGID_00000034784169780227832260000005400617485136104879_);}
	.st8{fill-rule:evenodd;clip-rule:evenodd;fill:url(#SVGID_00000136411473448879016030000014061379619373566377_);}
	.st9{fill-rule:evenodd;clip-rule:evenodd;fill:url(#SVGID_00000171709330003160200910000009322211066587898526_);}
</style>
<g>
	<g id="_圖層_1">
		<g>
			<rect x="248.5" y="131.7" class="st0" width="16.7" height="69.3"/>
			
				<rect x="261.3" y="123" transform="matrix(0.6421 -0.7666 0.7666 0.6421 -11.9318 257.3915)" class="st0" width="16.8" height="37"/>
			
				<rect x="753" y="88.2" transform="matrix(0.9024 -0.431 0.431 0.9024 29.7165 338.2368)" class="st0" width="16.8" height="30.7"/>
			
				<rect x="635.8" y="47.1" transform="matrix(0.6837 -0.7298 0.7298 0.6837 155.8857 490.8874)" class="st0" width="16.8" height="37"/>
			<rect x="325.3" y="38.6" class="st0" width="16.8" height="162.3"/>
			<rect x="492.2" y="109.6" class="st0" width="16.8" height="91.4"/>
			<rect x="449.6" y="139.2" class="st0" width="16.8" height="61.7"/>
			<rect x="492.2" y="139.2" class="st0" width="62.6" height="16.8"/>
			<rect x="289.5" y="92.9" class="st0" width="94.9" height="16.8"/>
			<rect x="679.5" y="98.4" class="st0" width="83.2" height="16.8"/>
			
				<rect x="661.6" y="62.4" transform="matrix(0.3997 -0.9166 0.9166 0.3997 358.314 688.7809)" class="st0" width="86.9" height="16.8"/>
			
				<rect x="678.4" y="152.4" transform="matrix(0.2018 -0.9794 0.9794 0.2018 413.2178 828.7198)" class="st0" width="73.4" height="16.8"/>
			
				<rect x="717.2" y="140" transform="matrix(0.2018 -0.9794 0.9794 0.2018 445.6596 843.6927)" class="st0" width="46.5" height="16.8"/>
			<rect x="682.4" y="58.5" class="st0" width="86.9" height="16.8"/>
			<rect x="289.5" y="184.2" class="st0" width="94.9" height="16.8"/>
			<rect x="419.4" y="184.2" class="st0" width="162.3" height="16.8"/>
			<path class="st0" d="M419.6,92.9c5.9,0,72.7,3.3,72.6-54.2H509c0,0,4.4,71-89.3,71L419.6,92.9L419.6,92.9z"/>
			<path class="st0" d="M492.2,38.6c0.1,30.1,33.5,71,89.5,71V92.9c0,0-73,3.1-72.8-54.2h-16.7V38.6z"/>
			<path class="st0" d="M615.2,109.6c0,0,33.6-2.4,34.9,19.4c1.3,21.7-34.6,6.6-34.6,32.6s19.5,39.4,31,39.4h24.4
				c6.3,0,20.9-4.8,25.8-25.9l4.8-21.1c0,0-6.3,28.3,0,0l6.2-28.3l-18.4-3.3c0,0-10.5,48.1-11.2,49.7c-0.7,1.6-2.6,10-8.2,12.1
				c-5.6,2.1-24,0-24,0s-13.2-7.8-13.2-22.3s31.3,3.3,32.6-32.9s-50-36.1-50-36.1L615.2,109.6L615.2,109.6z"/>
			<path class="st0" d="M728.7,163.6c0,0,1.5-7.4-1.2,5.8s-5.9,31.6,21.1,31.6s16.8,0,16.8,0s12.4,0.7,12.4-30.9l-15.1-1.9
				c0,0,0.6,6.3-1.4,10.2s-1.4,6.9-9.6,6.9s-10.4-0.1-7-16.8L728.7,163.6L728.7,163.6z"/>
			<path class="st0" d="M267.2,63.8V88c0,0,0,7.9,0,10.4s-6.6,33.2-39.2,33.2l0,0h-5.8v15.9h5.8c0,0,56.2,2.3,56-49.2V63.8H267.2z"
				/>
			<path class="st1" d="M234.5,223.8v3.6c-1.2-0.8-2.4-1.2-3.4-1.2c-1.1,0-1.9,0.4-2.6,1c-0.7,0.7-1,1.5-1,2.6c0,1,0.2,1.8,0.7,2.5
				c0.2,0.4,0.7,0.9,1.2,1.4c0.6,0.6,1.3,1.3,2.2,2.1c1.7,1.5,2.8,2.9,3.4,4c0.6,1.1,0.9,2.4,0.9,4c0,2.1-0.7,3.9-2,5.3
				c-1.3,1.4-3,2-5.1,2c-1.7,0-3.2-0.4-4.4-1.3v-3.7c1.4,1,2.8,1.4,4,1.4c1.1,0,2-0.3,2.6-1s0.9-1.6,0.9-2.8c0-1-0.2-1.9-0.7-2.7
				c-0.2-0.4-0.6-0.8-1-1.3s-1-1.1-1.7-1.7c-1-0.9-1.9-1.8-2.6-2.5c-0.7-0.7-1.2-1.3-1.5-1.9c-0.6-1.1-0.9-2.4-0.9-4
				c0-2.2,0.6-3.9,1.8-5.1c1.2-1.3,2.9-1.9,5-1.9C231.8,222.9,233.2,223.2,234.5,223.8L234.5,223.8z"/>
			<path class="st1" d="M262.8,237.8c0,4.9-0.6,8.4-1.8,10.4c-1.2,2.1-3.2,3.1-6,3.1c-2.9,0-5-1.1-6.2-3.3s-1.8-6-1.8-11.5
				c0-4.9,0.6-8.4,1.8-10.4c1.2-2.1,3.2-3.1,6-3.1c2.5,0,4.4,0.8,5.7,2.4c0.8,1.1,1.4,2.6,1.8,4.5
				C262.7,231.6,262.8,234.3,262.8,237.8L262.8,237.8z M258.6,238.2c0-4.8-0.2-8-0.7-9.5c-0.5-1.6-1.4-2.4-2.9-2.4s-2.4,0.7-2.9,2.2
				s-0.7,4.4-0.7,8.8c0,4.1,0.2,6.9,0.8,8.4c0.5,1.5,1.5,2.2,2.9,2.2s2.3-0.7,2.8-2.1C258.3,244.4,258.6,241.9,258.6,238.2
				L258.6,238.2z"/>
			<path class="st1" d="M287.1,223.7v3.4c-1-0.5-1.9-0.7-2.6-0.7c-1,0-1.8,0.2-2.5,0.6c-0.7,0.4-1.3,1.1-1.7,2
				c-0.5,0.9-0.8,2.1-1,3.4s-0.3,3-0.3,4.9c0,6.8,1.9,10.2,5.8,10.2c0.7,0,1.5-0.2,2.4-0.6v3.4c-1,0.5-2.1,0.8-3.3,0.8
				c-6.1,0-9.2-4.6-9.2-13.7c0-4.9,0.8-8.6,2.2-11s3.8-3.6,6.9-3.6C284.9,222.9,286,223.2,287.1,223.7L287.1,223.7z"/>
			<path class="st1" d="M298.8,223.3h4.1v27.6h-4.1V223.3z"/>
			<path class="st1" d="M320.2,223.3h3.2l6.5,27.6h-4l-1.1-5.4h-6l-1.2,5.4h-3.9L320.2,223.3L320.2,223.3z M324.1,242.7l-0.9-4.4
				c-0.6-3-1.1-6.2-1.5-9.6c-0.2,1.7-0.4,3.3-0.7,5c-0.3,1.7-0.6,3.5-1,5.4l-0.8,3.6H324.1L324.1,242.7z"/>
			<path class="st1" d="M340.6,223.3h4.1v24.5h6.7v3.1h-10.8L340.6,223.3L340.6,223.3z"/>
			<path class="st1" d="M378.9,223.3h10.9v3.1H383v8.8h6v3.1h-6v9.4h6.8v3.1h-10.9V223.3L378.9,223.3z"/>
			<path class="st1" d="M401.8,223.3h3.8l4.1,11c1.2,3.1,2.2,6.4,3.1,10c-0.3-2.1-0.6-4.1-0.7-5.8s-0.2-3.4-0.2-4.9v-10.3h4.1v27.6
				h-3.8l-4.6-12.4c-0.4-1.2-0.8-2.3-1.2-3.6s-0.7-2.5-1-3.8c0-0.2-0.1-0.4-0.1-0.6s-0.1-0.5-0.2-0.8c0,0.3,0.1,0.6,0.1,0.8
				s0,0.4,0.1,0.6l0.2,2.8l0.2,3.4c0,0.2,0,0.4,0,0.7s0,0.6,0,0.9l0.2,12.1h-4L401.8,223.3L401.8,223.3z"/>
			<path class="st1" d="M426.5,223.3h13.3v3.3h-4.6V251h-4v-24.4h-4.7L426.5,223.3L426.5,223.3z"/>
			<path class="st1" d="M450.3,223.3h10.9v3.1h-6.8v8.8h6v3.1h-6v9.4h6.8v3.1h-10.9V223.3L450.3,223.3z"/>
			<path class="st1" d="M473.2,223.3h5.4c2.2,0,3.9,0.5,5,1.4c1.4,1.2,2.1,3.2,2.1,5.8c0,2-0.4,3.6-1.1,4.8s-1.8,1.9-3.1,2.2
				l5.6,13.4H483l-5.5-13.5v13.5h-4.1L473.2,223.3L473.2,223.3z M477.3,235.5c1.6,0,2.7-0.3,3.4-1s1-1.8,1-3.4
				c0-0.9-0.1-1.6-0.2-2.2c-0.1-0.6-0.4-1.1-0.6-1.5c-0.3-0.4-0.7-0.7-1.1-0.8c-0.5-0.2-1-0.3-1.7-0.3h-0.7L477.3,235.5L477.3,235.5
				z"/>
			<path class="st1" d="M498.5,223.3h5.4c2.6,0,4.5,0.6,5.6,1.8c1.2,1.2,1.8,3.1,1.8,5.7c0,3.7-1.2,6.1-3.5,7.1
				c-1.2,0.5-2.9,0.7-5.2,0.7v12.3h-4.1L498.5,223.3L498.5,223.3z M502.6,235.5c1.7,0,2.9-0.3,3.5-0.9c0.6-0.6,1-1.8,1-3.4
				s-0.3-2.9-0.9-3.6c-0.6-0.8-1.6-1.1-3-1.1h-0.6V235.5L502.6,235.5z"/>
			<path class="st1" d="M522.7,223.3h5.4c2.2,0,3.9,0.5,5,1.4c1.4,1.2,2.1,3.2,2.1,5.8c0,2-0.4,3.6-1.1,4.8
				c-0.7,1.2-1.8,1.9-3.1,2.2l5.6,13.4h-4.1l-5.5-13.5v13.5h-4.1v-27.6H522.7z M526.8,235.5c1.6,0,2.7-0.3,3.3-1
				c0.7-0.7,1-1.8,1-3.4c0-0.9-0.1-1.6-0.2-2.2c-0.1-0.6-0.3-1.1-0.7-1.5c-0.3-0.4-0.7-0.7-1.1-0.8c-0.5-0.2-1-0.3-1.7-0.3h-0.7
				L526.8,235.5L526.8,235.5z"/>
			<path class="st1" d="M548,223.3h4.1v27.6H548V223.3z"/>
			<path class="st1" d="M575.1,223.8v3.6c-1.2-0.8-2.4-1.2-3.3-1.2c-1.1,0-2,0.4-2.6,1c-0.7,0.7-1,1.5-1,2.6c0,1,0.2,1.8,0.7,2.5
				c0.2,0.4,0.7,0.9,1.2,1.4c0.6,0.6,1.3,1.3,2.2,2.1c1.7,1.5,2.8,2.9,3.4,4c0.6,1.1,0.9,2.4,0.9,4c0,2.1-0.7,3.9-2,5.3
				c-1.3,1.4-3,2-5.1,2c-1.7,0-3.2-0.4-4.5-1.3v-3.7c1.5,1,2.8,1.4,4,1.4c1.1,0,2-0.3,2.6-1s0.9-1.6,0.9-2.8c0-1-0.2-1.9-0.7-2.7
				c-0.2-0.4-0.6-0.8-1-1.3c-0.5-0.5-1-1.1-1.7-1.7c-1-0.9-1.9-1.8-2.6-2.5c-0.7-0.7-1.2-1.3-1.5-1.9c-0.6-1.1-0.9-2.4-0.9-4
				c0-2.2,0.6-3.9,1.8-5.1c1.2-1.3,2.9-1.9,5-1.9C572.4,222.9,573.8,223.2,575.1,223.8L575.1,223.8z"/>
			<path class="st1" d="M588.3,223.3h10.8v3.1h-6.8v8.8h6v3.1h-6v9.4h6.8v3.1h-10.8V223.3L588.3,223.3z"/>
			<path class="st1" d="M627.9,223.3h4.1v27.6h-4.1V223.3z"/>
			<path class="st1" d="M645,223.3h3.8l4.1,11c1.2,3.1,2.2,6.4,3.1,10c-0.3-2.1-0.6-4.1-0.7-5.8s-0.2-3.4-0.2-4.9v-10.3h4.1v27.6
				h-3.8l-4.6-12.4c-0.4-1.2-0.8-2.3-1.2-3.6s-0.7-2.5-1-3.8c0-0.2-0.1-0.4-0.1-0.6s-0.1-0.5-0.2-0.8c0,0.3,0.1,0.6,0.1,0.8
				s0,0.4,0.1,0.6l0.2,2.8l0.2,3.4c0,0.2,0,0.4,0,0.7s0,0.6,0,0.9l0.2,12.1h-4L645,223.3L645,223.3z"/>
			<path class="st1" d="M682.2,223.8v3.6c-1.2-0.8-2.4-1.2-3.3-1.2c-1.1,0-2,0.4-2.6,1c-0.7,0.7-1,1.5-1,2.6c0,1,0.2,1.8,0.7,2.5
				c0.2,0.4,0.7,0.9,1.2,1.4c0.6,0.6,1.3,1.3,2.2,2.1c1.7,1.5,2.8,2.9,3.4,4c0.6,1.1,0.9,2.4,0.9,4c0,2.1-0.7,3.9-2,5.3
				c-1.3,1.4-3,2-5.1,2c-1.7,0-3.2-0.4-4.5-1.3v-3.7c1.5,1,2.8,1.4,4,1.4c1.1,0,2-0.3,2.6-1s0.9-1.6,0.9-2.8c0-1-0.2-1.9-0.7-2.7
				c-0.2-0.4-0.6-0.8-1-1.3c-0.5-0.5-1-1.1-1.7-1.7c-1-0.9-1.9-1.8-2.6-2.5c-0.7-0.7-1.2-1.3-1.5-1.9c-0.6-1.1-0.9-2.4-0.9-4
				c0-2.2,0.6-3.9,1.8-5.1c1.2-1.3,2.9-1.9,5-1.9C679.5,222.9,680.9,223.2,682.2,223.8L682.2,223.8z"/>
			<path class="st1" d="M695.4,223.3h4.1v27.6h-4.1V223.3z"/>
			<path class="st1" d="M719.7,236.4h7.4v1.1c0,5.4-0.5,9-1.5,10.9s-2.9,2.9-5.7,2.9s-5-1.1-6.2-3.2c-1.2-2.1-1.8-5.8-1.8-10.8
				c0-5.8,0.7-9.7,2-11.6c1.2-1.8,3.2-2.7,5.8-2.7c2,0,3.5,0.4,4.7,1.3c1.1,0.9,2,2.3,2.6,4.4l-3.8,1.4c-0.2-0.7-0.4-1.3-0.6-1.8
				s-0.4-0.9-0.7-1.2c-0.5-0.6-1.2-0.8-2.2-0.8c-1.4,0-2.3,0.8-2.8,2.3c-0.5,1.6-0.8,4.5-0.8,8.6s0.2,7,0.8,8.5s1.5,2.2,2.9,2.2
				c1.3,0,2.2-0.5,2.7-1.6s0.8-2.9,0.8-5.4v-1.3h-3.5v-3.2H719.7z"/>
			<path class="st1" d="M739.5,223.3h4.1v10.8h6v-10.8h4.1v27.6h-4.1v-13.7h-6v13.7h-4.1V223.3z"/>
			<path class="st1" d="M764.2,223.3h13.3v3.3h-4.6V251h-4v-24.4h-4.7V223.3z"/>
			<path class="st1" d="M798.2,223.8v3.6c-1.2-0.8-2.4-1.2-3.3-1.2c-1.1,0-2,0.4-2.6,1c-0.7,0.7-1,1.5-1,2.6c0,1,0.2,1.8,0.7,2.5
				c0.2,0.4,0.7,0.9,1.2,1.4c0.6,0.6,1.3,1.3,2.2,2.1c1.7,1.5,2.8,2.9,3.4,4c0.6,1.1,0.9,2.4,0.9,4c0,2.1-0.7,3.9-2,5.3
				c-1.3,1.4-3,2-5.1,2c-1.7,0-3.2-0.4-4.5-1.3v-3.7c1.5,1,2.8,1.4,4,1.4c1.1,0,2-0.3,2.6-1s0.9-1.6,0.9-2.8c0-1-0.2-1.9-0.7-2.7
				c-0.2-0.4-0.6-0.8-1-1.3c-0.5-0.5-1-1.1-1.7-1.7c-1-0.9-1.9-1.8-2.6-2.5s-1.2-1.3-1.5-1.9c-0.6-1.1-0.9-2.4-0.9-4
				c0-2.2,0.6-3.9,1.8-5.1c1.2-1.3,2.9-1.9,5-1.9C795.5,222.9,796.9,223.2,798.2,223.8L798.2,223.8z"/>
			<polygon class="st0" points="265.2,63.8 265.2,38.6 248.5,38.6 248.5,63.8 222,63.8 222,80.5 289.5,80.5 289.5,63.8 			"/>
			<path class="st1" d="M60.3,231.5c0,0-6.2,2.6,0,5s58.8-1.2,63.1-3.6s3.6-5.9,0-6.4s-23.3,3.3-29.4,3.6
				C87.9,230.5,62.5,231.5,60.3,231.5L60.3,231.5z"/>
			<path class="st1" d="M59.9,244c0,0-6.2,2.6,0,5s58.8-1.2,63.1-3.6c4.3-2.4,3.6-5.9,0-6.4s-23.3,3.3-29.4,3.6
				C87.6,242.9,62.1,244,59.9,244L59.9,244z"/>
			<path class="st1" d="M59.9,219.3c0,0-6.2,2.6,0,5s58.8-1.2,63.1-3.6c4.3-2.4,3.6-5.9,0-6.4s-23.3,3.3-29.4,3.6
				C87.6,218.2,62.1,219.3,59.9,219.3L59.9,219.3z"/>
			<path class="st1" d="M66.8,258.2c0,0,9,8.8,10.9,11.9s7.8,3.8,14.3,3.8s10.9,0.5,12.6-2.6s10.4-10.6,12.1-13.1
				c1.7-2.6-0.9-3.8-2.4-3.8s-46.3,1.4-47.6,2.2C65.6,257.5,65.3,258.2,66.8,258.2L66.8,258.2z"/>
			
				<linearGradient id="SVGID_1_" gradientUnits="userSpaceOnUse" x1="91.7222" y1="3009.4182" x2="91.0422" y2="3099.8079" gradientTransform="matrix(1 0 0 1 0 -2945.6763)">
				<stop  offset="0" style="stop-color:#F5A853;stop-opacity:0.22"/>
				<stop  offset="1" style="stop-color:#F5A853"/>
			</linearGradient>
			<path class="st2" d="M158.2,34.8C134.6,5.7,93,5.1,93,5.1h-2l0.1,11c42.7,0,77.4,34.7,77.4,77.4c0,20.8-8.2,39.7-21.6,53.6l1-0.2
				c0,0-14.6,15.7-22.1,35.3c-0.8,5.5-1.6,10.6-2.7,13.3c-2.4,5.9-6.2,3.3-6.2,3.3l-25.2-0.9c0,0-20.4,2.1-27.3,0
				c-4.5-1.3-5.2-8.2-5.3-13.7c-5.2-14.4-14.5-27-19.7-33.2c-15.7-14.2-25.6-34.7-25.6-57.5c0-42.7,34.6-77.4,77.3-77.4l0.1-11h-1.9
				c0,0-41.2,0.6-64.5,29.7C1.5,63.7-9.9,102.1,26.9,154.9c0.2,0.2,0.3,0.5,0.5,0.7c0,0,20.8,28.2,21.6,36.3s5.7,11.1,5.7,11.1
				s14.1,5.9,31.8,6v0.1h12.2V209c16.3-0.7,29-5.9,29-5.9s4.9-3,5.8-11.1c0.8-8.1,21.9-36.3,21.9-36.3c0.2-0.2,0.4-0.5,0.5-0.7
				C193,102.1,181.6,63.7,158.2,34.8L158.2,34.8z"/>
			
				<linearGradient id="SVGID_00000119817820293019322760000016259569533084398505_" gradientUnits="userSpaceOnUse" x1="91.1699" y1="2972.6384" x2="91.2199" y2="2977.4683" gradientTransform="matrix(1 0 0 1 0 -2945.6763)">
				<stop  offset="0" style="stop-color:#F5A853;stop-opacity:0.22"/>
				<stop  offset="1" style="stop-color:#F5A853"/>
			</linearGradient>
			<polygon style="fill:url(#SVGID_00000119817820293019322760000016259569533084398505_);" points="90.9,16.1 91.1,5 91.1,16.1 			
				"/>
			
				<linearGradient id="SVGID_00000034779707779078059340000008913646125291767474_" gradientUnits="userSpaceOnUse" x1="2261.2151" y1="3955.1577" x2="2383.7625" y2="3955.1577" gradientTransform="matrix(0.579 0.8153 -0.8153 0.579 1972.6851 -4086.3855)">
				<stop  offset="0" style="stop-color:#F5A853;stop-opacity:0.22"/>
				<stop  offset="1" style="stop-color:#F5A853"/>
			</linearGradient>
			<path style="fill-rule:evenodd;clip-rule:evenodd;fill:url(#SVGID_00000034779707779078059340000008913646125291767474_);" d="
				M122.9,34.1c12.4,15.8,14.6,32.2,12.9,46.1c-0.9,7.3-3,13.9-6.7,20.8c-3.5,6.6-8.8,13.6-16,19.2c-8,6.3-16.3,9.8-23.9,11.6
				c-15.1,3.6-29.6,1.5-42.9-5.6c-6.8-3.6-13.3-8.5-19.2-16c-12.4-15.7-14.7-32.1-13-45.9c0.9-7.1,3.1-14.1,6.7-20.8
				c3.7-6.8,8.6-13.3,16-19.2c7.9-6.3,16.3-9.9,23.8-11.7c7.8-1.9,14.9-2.1,22.1-1.1c12.1,1.5,24.8,6.6,35.5,17.4
				C119.9,30.4,121.5,32.3,122.9,34.1L122.9,34.1z M111.2,35.8c-9.1-9.1-19.8-13.3-30-14.6c-6.1-0.8-12.1-0.6-18.7,1
				C56,23.8,49,26.8,42.3,32.1C30,42.1,25,53.9,23.3,66c-1.6,11.3,0.4,26,10.8,38.9c10,12.3,22,17.6,33.9,19.1
				c11.7,1.5,25.5-0.2,39-10.8c6-4.7,10.6-10.6,13.5-16.2c5.9-11.4,7.6-23.4,4.6-36.4c-1.5-6.4-4.8-13.8-9.9-20.3
				C114,38.9,112.7,37.2,111.2,35.8L111.2,35.8z"/>
			
				<linearGradient id="SVGID_00000178885365474000983910000010745015148444785568_" gradientUnits="userSpaceOnUse" x1="2275.6406" y1="3935.1143" x2="2398.1301" y2="3935.1143" gradientTransform="matrix(0.579 0.8153 -0.8153 0.579 1972.6851 -4086.3855)">
				<stop  offset="0" style="stop-color:#F5A853;stop-opacity:0.22"/>
				<stop  offset="1" style="stop-color:#F5A853"/>
			</linearGradient>
			<path style="fill-rule:evenodd;clip-rule:evenodd;fill:url(#SVGID_00000178885365474000983910000010745015148444785568_);" d="
				M165.3,59.2c12.4,15.8,14.6,32.2,12.9,46.1c-0.9,7.3-3,13.9-6.7,20.8c-3.5,6.6-8.8,13.6-16,19.2c-8,6.3-16.3,9.8-23.9,11.6
				c-15.1,3.6-29.6,1.5-42.9-5.6c-6.8-3.6-13.3-8.5-19.2-16c-12.3-15.7-14.6-32.1-12.9-45.9c0.9-7.1,3.1-14.1,6.7-20.8
				c3.7-6.8,8.6-13.3,16-19.2c7.9-6.3,16.3-9.9,23.8-11.7c7.8-1.9,14.9-2.1,22.1-1.1c12.1,1.5,24.8,6.6,35.5,17.4
				C162.2,55.6,163.9,57.4,165.3,59.2L165.3,59.2z M153.6,61c-9.1-9.1-19.8-13.3-30-14.6c-6.1-0.8-12.1-0.6-18.7,1
				C98.5,49,91.4,52,84.8,57.3c-12.3,9.9-17.3,21.8-19,33.9c-1.6,11.3,0.4,26,10.8,38.9c10,12.3,22,17.6,33.8,19.1
				c11.7,1.5,25.5-0.2,39-10.8c6-4.7,10.6-10.6,13.5-16.2c5.9-11.4,7.6-23.4,4.6-36.4c-1.5-6.4-4.8-13.8-9.9-20.3
				C156.4,64,155,62.4,153.6,61L153.6,61z"/>
			
				<linearGradient id="SVGID_00000003068211815214507270000007707830577510419371_" gradientUnits="userSpaceOnUse" x1="2282.5088" y1="3956.4407" x2="2408.175" y2="3956.4407" gradientTransform="matrix(0.579 0.8153 -0.8153 0.579 1972.6851 -4086.3855)">
				<stop  offset="0" style="stop-color:#F5A853;stop-opacity:0.22"/>
				<stop  offset="1" style="stop-color:#F5A853"/>
			</linearGradient>
			<path style="fill-rule:evenodd;clip-rule:evenodd;fill:url(#SVGID_00000003068211815214507270000007707830577510419371_);" d="
				M154.1,77.5c12.7,16.2,14.9,33.1,13.2,47.2c-0.9,7.5-3.1,14.3-6.9,21.4c-3.6,6.8-9,13.9-16.4,19.7c-8.2,6.4-16.7,10-24.5,11.9
				c-15.5,3.7-30.3,1.6-44-5.7c-6.9-3.7-13.7-8.7-19.7-16.4c-12.6-16.1-14.9-32.9-13.2-47.1c0.9-7.3,3.2-14.5,6.8-21.4
				c3.8-7,8.8-13.6,16.4-19.7c8.1-6.4,16.7-10.2,24.4-12c8-1.9,15.3-2.1,22.7-1.2c12.4,1.6,25.4,6.7,36.3,17.8
				C151,73.8,152.6,75.7,154.1,77.5L154.1,77.5z M142.1,79.3c-9.3-9.3-20.3-13.7-30.8-15c-6.2-0.8-12.4-0.6-19.2,1
				c-6.6,1.6-13.8,4.7-20.6,10.2C58.8,85.7,53.7,97.9,52,110.2c-1.6,11.6,0.4,26.7,11.1,39.8c10.2,12.6,22.6,18.1,34.7,19.6
				c12,1.5,26.1-0.2,39.9-11.1c6.2-4.8,10.9-10.9,13.9-16.6c6.1-11.7,7.8-24,4.7-37.3c-1.5-6.6-4.9-14.1-10.1-20.8
				C144.9,82.5,143.6,80.8,142.1,79.3L142.1,79.3z"/>
			
				<linearGradient id="SVGID_00000063608802800679886920000015777118121843185326_" gradientUnits="userSpaceOnUse" x1="3348.4551" y1="3448.9731" x2="3471.0845" y2="3448.9731" gradientTransform="matrix(0.2248 0.9744 -0.9744 0.2248 2675.7192 -3971.7004)">
				<stop  offset="0" style="stop-color:#F5A853;stop-opacity:0.22"/>
				<stop  offset="1" style="stop-color:#F5A853"/>
			</linearGradient>
			<path style="fill-rule:evenodd;clip-rule:evenodd;fill:url(#SVGID_00000063608802800679886920000015777118121843185326_);" d="
				M140.4,108.9c5.4,19.4,1.2,35.4-5.7,47.5c-3.6,6.4-8.1,11.7-14.1,16.7c-5.7,4.8-13.3,9.2-22.1,11.7c-9.8,2.8-18.8,2.8-26.6,1.6
				c-15.4-2.4-28-9.9-37.6-21.5c-4.9-5.9-9.1-12.9-11.7-22.1c-5.4-19.2-1.2-35.3,5.6-47.4c3.5-6.3,8.2-11.9,14.1-16.7
				c6-4.9,13-9,22.1-11.7c9.7-2.8,18.9-3,26.5-1.8c7.9,1.2,14.6,3.8,20.9,7.4c10.6,6,20.4,15.5,26.2,29.6
				C139,104.4,139.8,106.7,140.4,108.9L140.4,108.9z M128.9,106.1c-5-11.8-13.2-19.9-22.2-24.9c-5.3-3-10.9-5.2-17.7-6.2
				c-6.6-1-14.2-0.9-22.4,1.5c-15.2,4.4-24.3,13.5-30.5,24c-5.8,9.9-9.6,24.2-4.8,40.1c4.5,15.2,13.6,24.7,24,30.6
				c10.2,5.8,23.6,9.5,40.2,4.9c7.4-2.1,13.8-5.8,18.7-9.9c9.8-8.3,15.9-18.8,18.1-31.9c1.1-6.5,0.8-14.6-1.4-22.5
				C130.3,110,129.7,107.9,128.9,106.1z"/>
			
				<linearGradient id="SVGID_00000122001486528661137170000000111057263544100796_" gradientUnits="userSpaceOnUse" x1="1846.5645" y1="3865.2917" x2="1920.0011" y2="3885.2427" gradientTransform="matrix(0.7085 0.7057 -0.7057 0.7085 1469.2399 -3998.2686)">
				<stop  offset="0" style="stop-color:#F5A853;stop-opacity:0.22"/>
				<stop  offset="1" style="stop-color:#F5A853"/>
			</linearGradient>
			<path style="fill-rule:evenodd;clip-rule:evenodd;fill:url(#SVGID_00000122001486528661137170000000111057263544100796_);" d="
				M82.3,27.5C91.6,36,94.5,45.7,95,54.4c0.2,4.6-0.3,8.8-1.9,13.4c-1.5,4.4-3.9,9.2-7.7,13.4C77,90.5,67.2,93.5,58.5,93.8
				c-4.4,0.2-8.9-0.4-13.4-1.9s-9.2-3.9-13.4-7.7C22.3,75.8,19.4,66,19,57.4c-0.2-4.5,0.4-8.9,1.9-13.4c1.5-4.6,3.8-9,7.7-13.4
				c4.2-4.7,8.9-7.7,13.4-9.6c4.6-2,8.9-2.9,13.4-3.1c7.5-0.3,15.8,1.4,23.5,6.9C80.1,25.6,81.3,26.6,82.3,27.5L82.3,27.5z
				 M71.1,30.1c-5.3-2.9-10.6-4-15.8-3.7c-6.7,0.3-14.5,2.7-20.9,9.9c-6,6.8-7.8,14.3-7.5,21s2.6,14.5,9.9,21
				c6.8,6.1,14.2,7.9,21,7.6s14.5-2.6,20.9-9.9c3-3.4,4.9-6.9,6.1-10.5s1.7-6.9,1.6-10.5c-0.3-6.8-2.8-14.6-10-21.1
				C74.9,32.5,72.9,31.1,71.1,30.1L71.1,30.1z"/>
			
				<linearGradient id="SVGID_00000131335539447356337660000002614618339143473539_" gradientUnits="userSpaceOnUse" x1="2288.0151" y1="3956.2209" x2="2444.937" y2="3956.2209" gradientTransform="matrix(0.579 0.8153 -0.8153 0.579 1972.6851 -4086.3855)">
				<stop  offset="0" style="stop-color:#F5A853;stop-opacity:0.22"/>
				<stop  offset="1" style="stop-color:#F5A853"/>
			</linearGradient>
			<path style="fill-rule:evenodd;clip-rule:evenodd;fill:url(#SVGID_00000131335539447356337660000002614618339143473539_);" d="
				M144.9,37.1c15.9,20.3,18.7,41.3,16.5,59c-1.2,9.4-3.9,17.9-8.6,26.7c-4.5,8.4-11.3,17.4-20.5,24.6c-10.2,8-20.9,12.5-30.7,14.9
				c-19.4,4.6-37.9,1.9-55-7.1c-8.7-4.6-17.1-10.9-24.6-20.5C6.3,114.6,3.4,93.5,5.5,75.9c1.1-9.1,3.9-18.1,8.6-26.7
				c4.7-8.7,11-17.1,20.5-24.6c10.1-8.1,20.9-12.7,30.6-15c10-2.4,19.1-2.6,28.3-1.5c15.4,1.9,31.7,8.4,45.4,22.3
				C141,32.5,143.1,34.9,144.9,37.1L144.9,37.1z M130,39.4c-11.7-11.6-25.4-17.1-38.5-18.7c-7.8-1-15.5-0.8-24,1.3
				c-8.3,2-17.3,5.9-25.8,12.7C25.8,47.4,19.5,62.6,17.3,78.1c-2,14.5,0.5,33.3,13.8,49.8c12.8,15.8,28.2,22.6,43.4,24.5
				c15,1.9,32.6-0.2,49.9-13.8c7.7-6.1,13.6-13.6,17.3-20.8c7.6-14.7,9.7-30,5.9-46.6c-1.9-8.3-6.1-17.7-12.7-25.9
				C133.5,43.4,131.8,41.2,130,39.4L130,39.4z"/>
		</g>
		<g>
			<path class="st1" d="M37.9,328v3.4h17.3v3.9H37.9v6.3h-4.5v-6.3H16.1v-3.9h17.2V328H13.5v-4h19.9v-12.3H14.7v-3.9h42.2v3.9h-19
				V324h20.3v4.1H37.9V328z M24.8,303.1h-11V299h11v-3.2h4.5v3.2h5.4v4.1h-5.4v3.4h-4.5C24.8,306.5,24.8,303.1,24.8,303.1z
				 M25.8,312.8v2.9h5.4v3.9h-5.4v3.2h-4.4v-3.2h-6.7v-3.9h6.7v-2.9H25.8z M41.9,303.1h-5.3V299h5.3v-3.2h4.5v3.2h11.1v4.1h-11v3.4
				H42C41.9,306.5,41.9,303.1,41.9,303.1z M45.8,322.9v-3.4h-5.6v-3.9h5.6v-2.8h4.3v2.8h6.5v3.9h-6.5v3.4H45.8z"/>
			<path class="st1" d="M103.1,308.9c-2.7,7.6-6.3,13.6-11.1,18.6c5.3,4.4,11.8,7.6,19.6,9.5c-1.1,1-2.4,2.9-3.2,4.3
				c-7.9-2.1-14.6-5.7-20-10.4c-5.6,4.7-12.3,8.2-20.5,10.7c-0.6-1.2-2-3.4-2.9-4.4c8.1-2.1,14.6-5.2,19.9-9.6
				c-4.8-5.1-8.6-11.4-11.3-18.7h-7.7v-4.5h21.7c-0.6-2.1-2-5.2-3.3-7.6l4.9-1.4c1.4,2.4,3.1,5.6,3.7,7.6l-4.4,1.4H111v4.5H103.1z
				 M78.5,308.9c2.4,5.9,5.8,11.1,10,15.4c4.1-4.2,7.2-9.3,9.4-15.4H78.5z"/>
			<path class="st1" d="M149.1,317.8c3.6,3.5,9.1,6.4,14.8,7.8c-1.1,0.9-2.4,2.8-3.1,3.9c-3.3-1.1-6.5-2.6-9.4-4.6v16.6h-4.8v-17.4
				h3.7c-2.5-1.9-4.8-4.1-6.6-6.4h-5.4c-1.8,2.3-4.1,4.5-6.6,6.4h4.1v3.2c0,4.8-1.2,10.9-11,14.6c-0.6-1.2-2.1-2.9-3.2-3.8
				c8.5-2.9,9.4-7.5,9.4-11v-2.6c-3.1,2.1-6.5,3.9-9.9,5.1c-0.7-1.2-2.1-2.9-3.1-3.9c5.3-1.6,10.9-4.6,14.6-8.1h-9v-20.4h34.6v20.4
				L149.1,317.8L149.1,317.8z M128.2,305.8h10.2v-4.6h-10.2C128.2,301.2,128.2,305.8,128.2,305.8z M128.2,314h10.2v-4.6h-10.2V314z
				 M153.4,301.2h-10.3v4.6h10.3V301.2z M153.4,309.4h-10.3v4.6h10.3V309.4z"/>
			<path class="st1" d="M213.9,322c-1.4,4.6-3.8,8.4-6.7,11.5c2.6,1.9,5.7,3.2,9.2,4.1c-1,0.9-2.1,2.6-2.8,3.7
				c-3.6-1.1-6.9-2.8-9.6-4.9c-2.9,2.2-6.1,3.9-9.4,5.1c-0.5-1.1-1.5-2.7-2.4-3.6v3.8h-4.4v-4.6c-6,0.6-11.9,1.4-16.5,1.9l-0.4-4.1
				c1.4-0.1,2.9-0.2,4.6-0.4v-16.1h-4.1v-3.8h43.8v3.8h-23v19.4c3.1-0.9,6.1-2.4,8.7-4.4c-2.2-2.4-4-5.2-5.3-8.4l1.2-0.4h-2.9V321
				h16.5l0.8-0.1L213.9,322L213.9,322z M181.7,312.7h-4.4v-15.3h32.2v15.3h-4.6v-11.9h-23.1L181.7,312.7L181.7,312.7z M179.6,318.4
				v2.8h8.2v-2.8H179.6z M179.6,327.4h8.2v-2.8h-8.2V327.4z M179.6,334.1c2.6-0.2,5.4-0.6,8.2-0.9v-2.4h-8.2V334.1L179.6,334.1z
				 M202.6,303.1v2.9h-19v-2.9H202.6z M183.6,308.4h19.1v2.9h-19.1V308.4z M199.6,324.7c1.1,2.2,2.5,4.3,4.3,6.1
				c1.8-1.8,3.3-3.9,4.4-6.1H199.6z"/>
			<path class="st1" d="M254,330.9c5.4,2.2,11.2,5.2,14.6,7.3l-3.6,3.4c-3.4-2.2-9.1-5.4-14.5-7.8l2.6-2.9h-16l4,2.7
				c-3.9,3-9.9,6.1-15,8c-0.8-0.9-2.2-2.4-3.4-3.4c5-1.6,11.1-4.7,14.1-7.3h-13.4v-4.2h7.2v-28.5h30.7v28.5h6.9v4.2L254,330.9
				L254,330.9z M235.4,301.9v3.6h21.2v-3.6H235.4z M256.6,308.9h-21.2v3.5h21.2V308.9z M235.4,315.8v3.6h21.2v-3.6H235.4z
				 M235.4,326.7h21.2v-3.8h-21.2L235.4,326.7L235.4,326.7z"/>
			<path class="st1" d="M284.6,331.6c-1.2,3-3.4,6.3-5.3,8.4c-0.8-0.7-2.4-1.9-3.2-2.5c1.9-1.9,3.6-4.5,4.6-6.9L284.6,331.6
				L284.6,331.6z M303.2,317.8h-27v-3.6h11.4c-0.2-0.7-0.6-1.4-1-1.9l4-0.9h-12v-13.9h23v13.9H291c0.5,0.8,1.1,1.8,1.5,2.8h10.6v3.6
				H303.2z M292,329.7v7.4c0,2.1-0.4,3.1-1.8,3.6c-1.4,0.6-3.4,0.6-6,0.6c-0.2-1.2-0.8-2.8-1.4-3.8c1.8,0.1,3.5,0.1,4,0.1
				s0.7-0.1,0.7-0.6v-7.4h-8.4v-9.9h21.8v9.9L292,329.7L292,329.7z M282.9,303h14v-2.4h-14V303z M282.9,308.4h14v-2.6h-14V308.4z
				 M283.4,326.6h12.9v-3.5h-12.9V326.6z M321.3,325.8c-3.8,6.6-10,12-16.8,15.5c-0.6-1.1-2-2.6-3-3.4l-3.4,1.6
				c-0.8-2.1-2.6-5.3-4.2-7.7l3.3-1.4c1.6,2.3,3.5,5.3,4.4,7.2c6.1-2.9,12.2-7.8,15.4-13.4L321.3,325.8L321.3,325.8z M319,298.5
				c-3.4,4.6-8.5,8.9-13.1,11.8c-0.8-0.9-2.1-2.4-3.3-3.2c4.2-2.4,9.3-6.4,12-10.4L319,298.5L319,298.5z M320.3,311.9
				c-3.6,4.9-9.2,9.5-14.4,12.5c-0.8-1.1-2.1-2.4-3.2-3.3c4.8-2.5,10.4-6.8,13.4-11L320.3,311.9z"/>
			<path class="st1" d="M343.7,306.2c-2.2,6.1-7.4,10.3-13.6,12.9c-0.4-0.8-1.2-2.2-1.9-2.9c3.8-1.4,7.1-3.3,9.5-6.1
				c-6.2,0.6-7.4,0.9-8,1.2v-0.1c-0.2-0.6-0.6-2.2-1-3c0.9-0.1,1.8-0.6,3-1.4c0.5-0.4,1.5-1.2,2.8-2.2c-3.3,0.3-4.1,0.4-4.6,0.7
				c-0.2-0.7-0.6-2.2-1-3.1c0.6-0.1,1.2-0.5,2-1.1s3.1-3.1,4.6-5.6l2.9,1.6c-1.5,1.9-3.1,3.8-4.8,5.2l3.6-0.2c1-0.9,1.9-1.9,2.6-2.9
				l2.6,1.7c-2.5,2.6-5.2,5.2-8,7.2l5.1-0.4c0.4-0.7,0.6-1.4,1-2.2L343.7,306.2l-0.1-7.7h3.9v0.1h1c-0.3-0.8-0.6-1.6-1-2.3l3.6-0.9
				c0.7,1,1.2,2.1,1.6,3.2h5.2V310h-2c1.5,1.5,3.1,3.3,4,4.8v-17.5h10.2l0.5-0.2l2.7,1.4c-1.1,2.5-2.5,4.9-3.8,7.1
				c2.6,2.1,3.8,4.1,3.8,5.8s-0.7,3-1.9,3.8c-0.6,0.4-1.5,0.6-2.2,0.8c-1,0.1-2.5,0.1-3.7,0.1c0-1-0.5-2.4-1.1-3.2
				c1.2,0.1,2.4,0.1,3.2,0.1c0.5-0.1,1-0.1,1.2-0.2c0.6-0.3,0.9-0.9,0.9-1.6c0-1.2-1.2-2.7-4-4.7c1-2,1.9-3.9,2.5-5.6h-4.7V318h-3.8
				v-3l-2.8,1.4c-0.4-0.7-0.9-1.5-1.5-2.3c-10,2.2-11.5,2.6-12.4,3.1c-0.2-0.9-0.9-2.5-1.5-3.2c0.8-0.3,1.9-1.1,1.9-2.9v-4.9H343.7z
				 M362.4,321.7c-0.9,1.1-1.7,2.1-2.5,2.9h13.2v3.1h-44.6v-3.1h13.2c-0.5-0.9-1.1-1.9-1.8-2.6l1.6-0.5h-7.9v-3h15.1
				c-0.3-0.7-0.6-1.4-0.9-2l4.4-1.1c0.5,0.9,1.1,2,1.5,3.1h15v3h-6.9L362.4,321.7L362.4,321.7z M335.5,329.5h31.2v12.1h-4.5v-1.2
				h-22.5v1.2h-4.2V329.5z M339.8,332v1.9h22.5V332H339.8z M362.2,338v-2h-22.5v1.9h22.5V338z M355.6,324.6c0.6-0.9,1.4-2.1,2-3.1
				h-13.3c0.7,0.9,1.4,2,1.7,2.8l-0.8,0.2h10.4V324.6z M347.6,300.9v2.1h6.8v-2.1H347.6z M347.6,307.6h6.8v-2.2h-6.8V307.6z
				 M353.4,311.5c-0.4-0.4-0.9-0.9-1.4-1.3l0.4-0.2h-4.9v2.6L353.4,311.5L353.4,311.5z"/>
			<path class="st1" d="M423.6,306.4c0,0,0,1.6-0.1,2.3c-1.1,20.2-2,27.6-4.2,30.2c-1.4,1.6-2.6,2.1-4.6,2.3c-1.8,0.2-5,0.1-8,0
				c-0.1-1.4-0.8-3.4-1.6-4.8c3.3,0.3,6.4,0.3,7.6,0.3c1.1,0,1.7-0.1,2.3-0.8c1.7-1.6,2.8-8.4,3.6-24.8H403
				c-0.8,10.3-4.1,22.4-18.4,30.8c-0.8-1.1-2.5-2.9-3.6-3.8c13-7.4,16.2-18.1,17-27.1h-15.5v-4.8h15.8v-10.5h4.9v10.5h20.4V306.4z"
				/>
			<path class="st1" d="M477.3,303.5c0,0,0,1.6,0,2.2c-0.7,22.6-1.3,30.3-3.3,32.8c-1.2,1.6-2.5,2.1-4.4,2.4c-1.8,0.2-4.7,0.1-7.5,0
				c-0.1-1.2-0.6-3.2-1.5-4.5c3.2,0.2,6.1,0.3,7.4,0.3c1,0,1.5-0.1,2.1-0.9c1.6-1.6,2.2-9.2,2.9-28.1h-11.8c-1.4,3.2-3,6.1-4.5,8.4
				c-0.8-0.7-2.5-1.9-3.6-2.6v22.9h-13.5v3.8h-4.2v-36.6h5.6c0.7-2.4,1.5-5.7,1.8-8.1l5,0.9c-0.9,2.5-1.8,5.1-2.6,7.2h8v9.4
				c3.3-4.3,6-10.9,7.5-17.6l4.5,1.1c-0.6,2.3-1.2,4.6-2,6.8L477.3,303.5L477.3,303.5z M439.3,307.8v9.5h9.3v-9.5H439.3z
				 M448.6,332.4v-11.1h-9.3v11.1H448.6z M465.3,328.5c-1.4-3.1-4.6-7.9-7.3-11.6l3.6-2.1c2.6,3.4,6,8.2,7.5,11.1L465.3,328.5
				L465.3,328.5z"/>
			<path class="st1" d="M502,326.7c-1-1.4-2.9-3.6-4.5-5.6v20.6H493v-19.4c-2,2-4.2,3.8-6.4,5.1c-0.4-1.2-1.4-3.7-2-4.6
				c5.2-3.1,10.5-8.5,13.8-14.3H486v-4.2h9.5c-0.9-1.9-2.8-4.6-4.5-6.6l3.6-2.1c1.9,1.9,3.9,4.6,4.7,6.4l-3.6,2.2h5.1l0.8-0.2
				l2.5,1.8c-1.5,3.7-3.5,7.2-6,10.5c2,1.8,5.7,5.5,6.7,6.6L502,326.7z M531.2,335.3v4.6h-28.5v-4.6h12.6v-19.9H505V311h10.3v-15.2
				h4.8V311h10.1v4.4H520v19.9H531.2z"/>
			<path class="st1" d="M564.2,297c-0.2,0.3-0.5,0.6-0.8,0.9c4.7,4.3,13.1,8.1,20.9,9.8c-1,0.8-2.2,2.4-3,3.6
				c-1.2-0.4-2.5-0.8-3.8-1.2V323h-33.8v-12.6c-1.2,0.4-2.5,0.9-3.7,1.2c-0.4-0.9-1.7-2.8-2.5-3.6c9-2.3,17.9-6.6,22.5-12.5
				L564.2,297L564.2,297z M577.5,310c-2.7-0.9-5.5-2.1-8-3.6v1.4h-17.3v-1.2c-2.3,1.3-4.8,2.4-7.2,3.3h32.5V310z M546.7,325h28.5
				v16.4h-4.8V340h-19.2v1.6h-4.6L546.7,325L546.7,325z M553.5,313.3c1.1,1.7,2.2,4,2.5,5.5l-3.3,1.1h5.9V313h-10.8v6.9h4.8
				c-0.3-1.6-1.3-3.9-2.3-5.6L553.5,313.3L553.5,313.3z M551.3,328.2v2.8h19.2v-2.8H551.3z M570.5,336.9v-2.8h-19.2v2.8H570.5z
				 M566.5,304.7c-2-1.2-3.9-2.7-5.5-4.2c-1.6,1.5-3.5,2.9-5.5,4.2H566.5z M573.6,313h-11.1v6.9h5.6L565,319c0.9-1.6,2-4.1,2.5-5.9
				l3.9,1.1c-1.1,2.1-2.2,4.2-3.1,5.7h5.3L573.6,313L573.6,313z"/>
			<path class="st1" d="M598.2,326.3c-0.1,0.6-0.2,1.3-0.3,1.9h18.8v13.1h-4.1v-1.7h-10.8v1.8h-4v-12.6c-0.7,3.9-1.8,7.8-3.8,10.9
				c-0.8-0.6-2.8-1.6-4-1.9c3.9-6.1,4.3-14.6,4.3-20.3v-6.3h21v15.1H598.2z M608.7,297.6c-0.2,0.4-0.5,0.9-0.8,1.3
				c3.8,2.2,8.2,4.9,10.5,6.8l-2.4,3.9c-2.4-1.9-6.9-4.9-10.8-7.4c-1.3,1.4-2.7,2.8-4.2,4h9.5v2.9h-10.3v-2.2
				c-2.5,1.9-5,3.6-7.7,5.1c-0.5-1.1-1.7-3.4-2.5-4.4c5.6-2.6,11.2-6.8,14.3-11.6L608.7,297.6L608.7,297.6z M611.2,322.9v-2.8h-12.5
				c0,0.9-0.1,1.9-0.2,2.8H611.2z M598.7,314.6v2.6h12.5v-2.6H598.7z M601.8,331.5v4.5h10.8v-4.5H601.8z M624.7,328.6h-4.3v-27.5
				h4.3V328.6z M634,296v39.9c0,2.7-0.6,4.1-2.2,4.8c-1.5,0.8-4.2,0.9-8.2,0.9c-0.2-1.2-0.8-3.4-1.5-4.6c2.8,0.1,5.5,0.1,6.2,0.1
				c0.8,0,1.2-0.2,1.2-1.1v-40H634L634,296z"/>
			<path class="st1" d="M651.1,327.7c-1.2,3.5-3.2,7.5-5,10.1c-0.8-0.6-2.2-1.7-3.2-2.2c1.8-2.4,3.5-5.8,4.6-8.9L651.1,327.7
				L651.1,327.7z M657.5,324.4v16.9H653v-16.9h-9.6v-3.9h9.6v-4.6h-9.9V312h5.5c-0.2-1.7-0.9-4.3-1.8-6.2l3.8-0.9
				c0.8,1.9,1.6,4.5,1.8,6.1l-3.7,1.1h7.9c0.9-2.1,2-5.1,2.5-7.2l4.3,0.9c-0.8,2.2-1.7,4.5-2.5,6.4h5.8v3.9h-9.2v4.6h8.5v3.9h-8.5
				V324.4z M665.9,304.7h-22v-3.9h9.2c-0.5-1.4-1.2-3-1.8-4.2l4.6-1.2c0.8,1.7,1.8,3.8,2.5,5.4h7.5V304.7z M662.4,326.2
				c1.7,2.4,3.3,5.5,4.2,7.5l-3.2,1.9c-0.8-2.1-2.5-5.4-4-7.8L662.4,326.2z M688.7,316.7h-5.1v24.8H679v-24.8h-5.8v1.2
				c0,7.2-0.7,17.2-5.1,23.6c-0.7-0.9-2.6-2.2-3.5-2.8c4-5.8,4.3-14.2,4.3-20.8v-17.3c5.5-0.9,11.7-2.5,15.3-4.1l3.7,3.4
				c-4.1,1.6-9.5,2.8-14.6,3.7v8.8h15.5L688.7,316.7L688.7,316.7z"/>
			<path class="st1" d="M740.7,324.7h-20v17h-4.8v-17H696V320h19.8v-16.4h-17.2V299h39.2v4.6h-17.2V320h20v4.7H740.7z M706.1,305.6
				c1.8,3.4,3.8,7.9,4.4,10.8l-4.5,1.5c-0.7-2.9-2.3-7.5-4.2-11L706.1,305.6z M725.4,316.7c1.7-3,3.8-7.8,4.9-11.2l5,1.4
				c-1.8,3.9-4,8.4-5.8,11.2L725.4,316.7L725.4,316.7z"/>
			<path class="st1" d="M778.9,300.9c4.7,4.2,10.5,10.4,13.2,14.5l-3.9,2.9c-0.8-1.2-1.8-2.6-2.9-4.1c-27.5,1.4-30.7,1.6-33,2.4
				c-0.2-0.9-1-3.2-1.5-4.6c1.2-0.2,2.5-1.2,4.1-2.9c1.8-1.6,7.4-7.8,11-13.9l4.7,2c-3.6,5.1-7.8,9.9-12,13.8l23.2-0.9
				c-2.2-2.4-4.5-4.8-6.6-6.8L778.9,300.9L778.9,300.9z M754.6,320.4H787v21.2h-5V339h-22.8v2.6h-4.7L754.6,320.4L754.6,320.4z
				 M759.3,324.8v9.7H782v-9.7H759.3z"/>
		</g>
	</g>
</g>
</svg>
